# xmcd
#
# Track frame offsets:
#	150
#	9760
#	23974
#	36767
#	47028
#	63567
#	77456
#	85376
#	95756
#	110975
#	121642
#	140029
#	150978
#	162052
#
# Disc length: 2317 seconds
#
# Revision: 1
# Processed by: cddbd v1.5.2PL0 Copyright (c) Steve Scherf et al.
# Submitted via: audiograbber 1.83.01
#
DISCID=a9090b0e
DTITLE=Bill Caswell - Tuff Stuff
DYEAR=2008
DGENRE=Bluegrass
TTITLE0=Dirty Shame
TTITLE1=Swamp Moss
TTITLE2=Jukebox Jumpin'
TTITLE3=Baby Hon'
TTITLE4=No New Blues
TTITLE5=Too Hot to Handle
TTITLE6=Tuxedo Strut
TTITLE7=Tuff Stuff
TTITLE8=Dangerous Curves
TTITLE9=Snake Eyes
TTITLE10=Too Much Trouble
TTITLE11=Double Clutch
TTITLE12=Red Beans and Rice
TTITLE13=Speed Bump
EXTD=
EXTT0=
EXTT1=
EXTT2=
EXTT3=
EXTT4=
EXTT5=
EXTT6=
EXTT7=
EXTT8=
EXTT9=
EXTT10=
EXTT11=
EXTT12=
EXTT13=
PLAYORDER=
